<?xml version="1.0" encoding="UTF-8" standalone="no"?>
<svg
   xmlns:dc="http://purl.org/dc/elements/1.1/"
   xmlns:cc="http://creativecommons.org/ns#"
   xmlns:rdf="http://www.w3.org/1999/02/22-rdf-syntax-ns#"
   xmlns:svg="http://www.w3.org/2000/svg"
   xmlns="http://www.w3.org/2000/svg"
   xmlns:sodipodi="http://sodipodi.sourceforge.net/DTD/sodipodi-0.dtd"
   xmlns:inkscape="http://www.inkscape.org/namespaces/inkscape"
   width="210mm"
   height="297mm"
   viewBox="0 0 210 297"
   version="1.1"
   id="svg2421"
   inkscape:version="1.0.2 (e86c8708, 2021-01-15)"
   sodipodi:docname="icon.svg">
  <defs
     id="defs2415">
    <clipPath
       clipPathUnits="userSpaceOnUse"
       id="clipPath3015">
      <rect
         style="fill:#f4d7d7;fill-opacity:1;stroke-width:0.894251"
         id="rect3017"
         width="328.81265"
         height="123.93335"
         x="601.65503"
         y="268.33682"
         rx="0"
         ry="0" />
    </clipPath>
    <filter
       inkscape:collect="always"
       style="color-interpolation-filters:sRGB"
       id="filter3019"
       x="-0.012"
       width="1.024"
       y="-0.012"
       height="1.024">
      <feGaussianBlur
         inkscape:collect="always"
         stdDeviation="1.8096485"
         id="feGaussianBlur3021" />
    </filter>
  </defs>
  <sodipodi:namedview
     id="base"
     pagecolor="#ffffff"
     bordercolor="#666666"
     borderopacity="1.0"
     inkscape:pageopacity="0.0"
     inkscape:pageshadow="2"
     inkscape:zoom="1.38425"
     inkscape:cx="541.52975"
     inkscape:cy="365.71429"
     inkscape:document-units="mm"
     inkscape:current-layer="layer1"
     inkscape:document-rotation="0"
     showgrid="false"
     inkscape:window-width="1853"
     inkscape:window-height="999"
     inkscape:window-x="32"
     inkscape:window-y="25"
     inkscape:window-maximized="0" />
  <metadata
     id="metadata2418">
    <rdf:RDF>
      <cc:Work
         rdf:about="">
        <dc:format>image/svg+xml</dc:format>
        <dc:type
           rdf:resource="http://purl.org/dc/dcmitype/StillImage" />
        <dc:title></dc:title>
      </cc:Work>
    </rdf:RDF>
  </metadata>
  <g
     inkscape:label="Layer 1"
     inkscape:groupmode="layer"
     id="layer1">
    <path
       id="rect2990"
       style="fill:#014a98;fill-opacity:1;stroke-width:0.999999;filter:url(#filter3019)"
       d="m 603.9375,149.53906 c -10.80585,0 -19.50586,8.70001 -19.50586,19.50586 v 322.91797 c 0,10.80585 8.70001,19.50586 19.50586,19.50586 h 322.91797 c 10.80585,0 19.50586,-8.70001 19.50586,-19.50586 V 169.04492 c 0,-10.80585 -8.70001,-19.50586 -19.50586,-19.50586 z m 134.90625,125.20508 h 19.03906 v 46.09961 l 1.91992,-2.54297 14.34961,-17.85156 h 22.82422 19.77149 l 9.66211,34.46094 10.16796,-34.46094 h 20.39454 l -24.91407,71.35156 -1.07421,2.59766 c -3.54026,7.90908 -9.79224,11.86523 -18.75586,11.86523 -2.4857,0 -5.10221,-0.3776 -7.85157,-1.13086 v -13.61523 h 2.48633 c 2.67402,0 4.70805,-0.39464 6.10156,-1.18555 1.43116,-0.75323 2.48419,-2.12888 3.16211,-4.125 l 1.52539,-4.06641 -21.07812,-61.21874 -21.00977,24.66796 22.82422,35.98633 H 776.58203 L 763.25,338.80859 l -5.36719,5.36719 v 17.40039 h -19.03906 z m 155.41406,3.44727 c 5.91297,0 11.20489,1.05498 15.875,3.16406 4.70781,2.1091 8.36031,5.12023 10.95899,9.03711 2.5987,3.8792 3.89843,8.3249 3.89843,13.33398 H 905.2168 c 0,-3.35193 -1.03404,-5.95143 -3.10547,-7.79687 -2.03377,-1.84547 -4.8021,-2.76758 -8.30469,-2.76758 -3.54026,0 -6.34654,0.79121 -8.41797,2.37305 -2.03376,1.54413 -3.05078,3.52126 -3.05078,5.93164 0,2.1091 1.12892,4.02926 3.38867,5.76172 2.25973,1.69479 6.23487,3.46507 11.92188,5.31054 5.687,1.80778 10.35652,3.7659 14.00976,5.875 8.88829,5.12207 13.33203,12.18428 13.33203,21.18555 0,7.1935 -2.71139,12.84207 -8.13476,16.94727 -5.42337,4.10519 -12.86123,6.1582 -22.31445,6.1582 -6.66623,0 -12.71143,-1.18586 -18.13477,-3.5586 -5.38573,-2.41038 -9.4538,-5.68723 -12.20313,-9.83007 -2.71168,-4.18054 -4.0664,-8.98291 -4.0664,-14.40625 h 19.88476 c 0,4.40647 1.1309,7.66436 3.39063,9.77343 2.2974,2.07144 6.00684,3.10743 11.12891,3.10743 3.27662,0 5.85517,-0.69634 7.73828,-2.08985 1.92078,-1.43115 2.88281,-3.42725 2.88281,-5.98828 0,-2.90001 -1.03599,-5.15982 -3.10742,-6.7793 -2.03377,-1.61947 -5.63128,-3.29683 -10.79102,-5.02929 -5.15973,-1.73246 -9.3777,-3.40787 -12.65429,-5.02735 -10.65845,-5.23505 -15.98829,-12.42813 -15.98829,-21.58007 0,-4.55713 1.31871,-8.56826 3.95508,-12.03321 2.67402,-3.50259 6.4404,-6.21401 11.29883,-8.13476 4.85843,-1.95845 10.31917,-2.9375 16.38281,-2.9375 z m -288.45508,1.1289 h 29.54493 c 10.5831,0 18.62436,1.94108 24.12304,5.82031 5.53636,3.87921 8.30469,9.50881 8.30469,16.89063 0,4.25582 -0.97907,7.88935 -2.9375,10.90234 -1.95845,3.01299 -4.83868,5.23682 -8.64258,6.66797 4.29352,1.12988 7.58737,3.23787 9.88477,6.32617 2.2974,3.08831 3.44726,6.85469 3.44726,11.29883 0,8.05974 -2.56152,14.12388 -7.68359,18.19141 -5.08442,4.02986 -12.63613,6.08289 -22.6543,6.1582 h -33.38672 z m 19.82813,15.31055 v 18.98242 h 10.33984 c 4.33117,-0.0375 7.41823,-0.82878 9.26368,-2.37305 1.84546,-1.54413 2.76953,-3.82294 2.76953,-6.83593 0,-3.46495 -0.99802,-5.95057 -2.99414,-7.45703 -1.9961,-1.54417 -5.21797,-2.31641 -9.66211,-2.31641 z m 77.56641,4.68945 c 8.05971,0 14.53749,1.82528 19.43359,5.47852 4.8961,3.65324 7.34375,8.45561 7.34375,14.40625 h -19.09375 c 0,-4.8961 -2.5805,-7.34375 -7.74024,-7.34375 -1.99609,0 -3.6715,0.56543 -5.02734,1.69531 -1.35584,1.09221 -2.03516,2.46593 -2.03516,4.12305 0,1.69481 0.82919,3.07046 2.48633,4.125 1.65712,1.05454 4.29456,1.91973 7.91016,2.59765 3.65324,0.67793 6.85419,1.48814 9.60351,2.42969 9.1896,3.16364 13.78321,8.83118 13.78321,17.00391 0,5.57399 -2.48562,10.11262 -7.45703,13.61523 -4.93375,3.50259 -11.33561,5.25391 -19.20703,5.25391 -5.23508,0 -9.9046,-0.94111 -14.00977,-2.82422 -4.1052,-1.88314 -7.30807,-4.44464 -9.60547,-7.68359 -2.2974,-3.23896 -3.44531,-6.64671 -3.44531,-10.22461 h 17.79492 c 0.0753,2.82466 1.0184,4.89471 2.82617,6.21289 1.8078,1.28053 4.1226,1.92187 6.94727,1.92187 2.5987,0 4.53978,-0.52749 5.82031,-1.58203 1.31817,-1.05456 1.97656,-2.43021 1.97656,-4.125 0,-1.61948 -0.84815,-2.91726 -2.54297,-3.89648 -1.69479,-0.97923 -4.9147,-1.99625 -9.66015,-3.05079 -4.74545,-1.05453 -8.6617,-2.43018 -11.75,-4.125 -3.0883,-1.73245 -5.44302,-3.82148 -7.0625,-6.26953 -1.61948,-2.44805 -2.42969,-5.25435 -2.42969,-8.41797 0,-5.61169 2.31678,-10.22622 6.94922,-13.84179 4.63247,-3.65324 10.6966,-5.47852 18.19141,-5.47852 z m -77.56641,27.28516 v 19.7168 H 638.625 c 3.5779,0 6.32727,-0.81021 8.24805,-2.42969 1.92078,-1.65712 2.88086,-3.9739 2.88086,-6.94922 0,-6.85455 -3.40773,-10.30022 -10.22461,-10.33789 z"
       transform="matrix(0.26458333,0,0,0.26458333,-119.72597,1.4937641)"
       clip-path="url(#clipPath3015)"
       inkscape:export-xdpi="8.4899998"
       inkscape:export-ydpi="8.4899998" />
    <path
       id="rect2984"
       style="fill:#1185fe;fill-opacity:1;stroke-width:0.999999"
       d="M 148.09375 150.98438 C 137.2879 150.98437 128.58984 159.68438 128.58984 170.49023 L 128.58984 493.4082 C 128.58984 504.21406 137.2879 512.91406 148.09375 512.91406 L 471.01367 512.91406 C 481.81952 512.91406 490.51758 504.21406 490.51758 493.4082 L 490.51758 170.49023 C 490.51758 159.68438 481.81952 150.98438 471.01367 150.98438 L 148.09375 150.98438 z M 283.00195 276.18945 L 302.04102 276.18945 L 302.04102 322.28906 L 303.96094 319.74609 L 318.31055 301.89453 L 341.13281 301.89453 L 360.90625 301.89453 L 370.56641 336.35547 L 380.73633 301.89453 L 401.12891 301.89453 L 376.2168 373.24609 L 375.14258 375.84375 C 371.60232 383.75283 365.35034 387.70703 356.38672 387.70703 C 353.90101 387.70703 351.2845 387.33138 348.53516 386.57812 L 348.53516 372.96289 L 351.01953 372.96289 C 353.69355 372.96289 355.72759 372.56825 357.12109 371.77734 C 358.55226 371.0241 359.60723 369.64845 360.28516 367.65234 L 361.81055 363.58594 L 340.73047 302.36719 L 319.72266 327.0332 L 342.54688 363.01953 L 320.74023 363.01953 L 307.40625 340.25391 L 302.04102 345.61914 L 302.04102 363.01953 L 283.00195 363.01953 L 283.00195 276.18945 z M 438.41602 279.63672 C 444.32899 279.63672 449.61895 280.68974 454.28906 282.79883 C 458.99687 284.90792 462.65132 287.92102 465.25 291.83789 C 467.8487 295.71711 469.14844 300.16084 469.14844 305.16992 L 449.375 305.16992 C 449.375 301.81798 448.33901 299.22045 446.26758 297.375 C 444.23381 295.52955 441.46548 294.60742 437.96289 294.60742 C 434.42263 294.60742 431.61831 295.3967 429.54688 296.97852 C 427.51311 298.52267 426.49609 300.49977 426.49609 302.91016 C 426.49609 305.01924 427.62501 306.94136 429.88477 308.67383 C 432.14449 310.36863 436.11768 312.13892 441.80469 313.98438 C 447.49169 315.79217 452.16121 317.75029 455.81445 319.85938 C 464.70274 324.98144 469.14844 332.04364 469.14844 341.04492 C 469.14844 348.23842 466.43704 353.887 461.01367 357.99219 C 455.5903 362.09738 448.15049 364.15039 438.69727 364.15039 C 432.03104 364.15039 425.9878 362.96452 420.56445 360.5918 C 415.17873 358.18141 411.11066 354.90457 408.36133 350.76172 C 405.64964 346.5812 404.29297 341.77884 404.29297 336.35547 L 424.17969 336.35547 C 424.17969 340.76196 425.30863 344.01982 427.56836 346.12891 C 429.86576 348.20033 433.5752 349.23633 438.69727 349.23633 C 441.97389 349.23633 444.55439 348.53804 446.4375 347.14453 C 448.35828 345.71336 449.31836 343.71728 449.31836 341.15625 C 449.31836 338.25625 448.28237 335.99643 446.21094 334.37695 C 444.17717 332.75747 440.58161 331.08207 435.42188 329.34961 C 430.26214 327.61714 426.04418 325.94174 422.76758 324.32227 C 412.10913 319.08721 406.7793 311.89412 406.7793 302.74219 C 406.7793 298.18505 408.098 294.17391 410.73438 290.70898 C 413.40839 287.20639 417.17477 284.49499 422.0332 282.57422 C 426.89163 280.61578 432.35237 279.63672 438.41602 279.63672 z M 149.96094 280.76562 L 179.50586 280.76562 C 190.08896 280.76562 198.13022 282.70477 203.62891 286.58398 C 209.16526 290.4632 211.93359 296.09475 211.93359 303.47656 C 211.93359 307.7324 210.95453 311.36592 208.99609 314.37891 C 207.03766 317.39189 204.15545 319.61376 200.35156 321.04492 C 204.64506 322.17479 207.94088 324.28474 210.23828 327.37305 C 212.53568 330.46135 213.68555 334.22773 213.68555 338.67188 C 213.68555 346.7316 211.12402 352.7938 206.00195 356.86133 C 200.91754 360.89119 193.36582 362.94421 183.34766 363.01953 L 149.96094 363.01953 L 149.96094 280.76562 z M 169.78906 296.07617 L 169.78906 315.05664 L 180.12695 315.05664 C 184.45812 315.01897 187.54713 314.22774 189.39258 312.68359 C 191.23803 311.13944 192.16016 308.86259 192.16016 305.84961 C 192.16016 302.38468 191.16212 299.89907 189.16602 298.39258 C 187.16991 296.84843 183.95001 296.07617 179.50586 296.07617 L 169.78906 296.07617 z M 247.35547 300.76367 C 255.4152 300.76367 261.89297 302.5909 266.78906 306.24414 C 271.68516 309.89738 274.13281 314.69975 274.13281 320.65039 L 255.03711 320.65039 C 255.03711 315.75429 252.45856 313.30664 247.29883 313.30664 C 245.30273 313.30664 243.62537 313.87013 242.26953 315 C 240.91369 316.09221 240.23633 317.46786 240.23633 319.125 C 240.23633 320.8198 241.06551 322.1935 242.72266 323.24805 C 244.3798 324.30259 247.01528 325.16973 250.63086 325.84766 C 254.2841 326.52558 257.48503 327.33579 260.23438 328.27734 C 269.42397 331.44097 274.01953 337.10853 274.01953 345.28125 C 274.01953 350.85527 271.53392 355.39389 266.5625 358.89648 C 261.62874 362.39908 255.22688 364.15039 247.35547 364.15039 C 242.12041 364.15039 237.44894 363.20929 233.34375 361.32617 C 229.23856 359.44306 226.03763 356.88153 223.74023 353.64258 C 221.44284 350.40362 220.29492 346.99393 220.29492 343.41602 L 238.08984 343.41602 C 238.16518 346.24069 239.10629 348.31268 240.91406 349.63086 C 242.72185 350.91138 245.03861 351.55273 247.86328 351.55273 C 250.46198 351.55273 252.40112 351.02525 253.68164 349.9707 C 254.99982 348.91616 255.66016 347.5405 255.66016 345.8457 C 255.66016 344.22622 254.81199 342.92648 253.11719 341.94727 C 251.42238 340.96805 248.20248 339.95103 243.45703 338.89648 C 238.71158 337.84194 234.79338 336.46824 231.70508 334.77344 C 228.61677 333.04097 226.26401 330.95 224.64453 328.50195 C 223.02505 326.05391 222.21484 323.24957 222.21484 320.08594 C 222.21484 314.47426 224.5316 309.85972 229.16406 306.24414 C 233.79652 302.5909 239.86068 300.76367 247.35547 300.76367 z M 169.78906 328.05078 L 169.78906 347.76758 L 182.7832 347.76758 C 186.36112 347.76758 189.11047 346.95737 191.03125 345.33789 C 192.95203 343.68075 193.91211 341.36399 193.91211 338.38867 C 193.91211 331.53414 190.50437 328.08845 183.6875 328.05078 L 169.78906 328.05078 z "
       transform="scale(0.26458333)"
       inkscape:export-xdpi="8.4899998"
       inkscape:export-ydpi="8.4899998" />
  </g>
</svg>
